<?xml version="1.0" encoding="UTF-8" standalone="no"?>
<svg
   xmlns:dc="http://purl.org/dc/elements/1.1/"
   xmlns:cc="http://creativecommons.org/ns#"
   xmlns:rdf="http://www.w3.org/1999/02/22-rdf-syntax-ns#"
   xmlns:svg="http://www.w3.org/2000/svg"
   xmlns="http://www.w3.org/2000/svg"
   xmlns:sodipodi="http://sodipodi.sourceforge.net/DTD/sodipodi-0.dtd"
   xmlns:inkscape="http://www.inkscape.org/namespaces/inkscape"
   class="error-page__cable-img"
   id="cable-img"
   data-name="cable-img"
   viewBox="0 0 525.2837 186.5615"
   version="1.1"
   sodipodi:docname="error.svg"
   inkscape:version="1.0.2 (e86c8708, 2021-01-15)">
  <metadata
     id="metadata27">
    <rdf:RDF>
      <cc:Work
         rdf:about="">
        <dc:format>image/svg+xml</dc:format>
        <dc:type
           rdf:resource="http://purl.org/dc/dcmitype/StillImage" />
      </cc:Work>
    </rdf:RDF>
  </metadata>
  <defs
     id="defs25" />
  <sodipodi:namedview
     pagecolor="#ffffff"
     bordercolor="#666666"
     borderopacity="1"
     objecttolerance="10"
     gridtolerance="10"
     guidetolerance="10"
     inkscape:pageopacity="0"
     inkscape:pageshadow="2"
     inkscape:window-width="1426"
     inkscape:window-height="921"
     id="namedview23"
     showgrid="false"
     inkscape:zoom="0.83131151"
     inkscape:cx="161.85446"
     inkscape:cy="226.807"
     inkscape:window-x="1864"
     inkscape:window-y="269"
     inkscape:window-maximized="0"
     inkscape:current-layer="cable-img" />
  <g
     id="indicator">
    <path
       id="ray-center"
       d="M 257.64453 0 A 1 1 0 0 0 256.64453 1 L 256.64453 27.285156 A 1 1 0 0 0 258.64453 27.285156 L 258.64453 1 A 1 1 0 0 0 257.64453 0 z M 257.64453 34 A 1 1 0 0 0 256.64453 35 L 256.64453 39.142578 A 1 1 0 0 0 258.64453 39.142578 L 258.64453 35 A 1 1 0 0 0 257.64453 34 z " />
    <path
       d="M315.1157,38.4355l-10.1895,10.19A1,1,0,1,0,306.34,50.04L316.53,39.85A1,1,0,0,0,315.1157,38.4355Z"
       id="ray--right" />
    <path
       d="M199.354,38.4355a1,1,0,0,0,0,1.4141l10.1895,10.19a1,1,0,0,0,1.4141-1.4141l-10.1895-10.19A1,1,0,0,0,199.354,38.4355Z"
       id="ray--left" />
  </g>
  <g
     id="cable">
    <path
       d="M523.2837,182.4819H342.3979c-9.61-.0874-16.1963-3.335-19.0459-9.3916-3.585-7.62-.8389-19.0869,6.835-28.5361a40.2147,40.2147,0,0,1,17.41-12.6709A103.8342,103.8342,0,0,1,352.4,143.67c3.7617,10.4565,7.3145,20.3335,19.3359,20.3335,10.8,0,17.8154-4.8535,18.7676-12.9839,1.0723-9.1558-6.5791-20.707-21.2412-24.189a40.0076,40.0076,0,0,0-19.7432.2407,36.1029,36.1029,0,0,0-20.9951-16.8145,1.982,1.982,0,0,0-.6125-0.0856,5.1561,5.1561,0,0,0-.0076-0.9857,2.8616,2.8616,0,0,0-1.6484-2.4238l-8.5459-5.5352a10.8415,10.8415,0,0,0-6.4473-6.9423l-4.8877-1.8911-2.7242-.944,0.5054-1.3051a2,2,0,1,0-3.73-1.4443l-7.4972,19.3589-0.1581.4082h0l-1.2539,3.2377a2,2,0,1,0,3.73,1.4443l0.5442-1.4051,7.6248,2.8a10.8209,10.8209,0,0,0,9.4488-.7881l10.0375,1.6641a2.59,2.59,0,0,0,.8389.1406,3.0916,3.0916,0,0,0,2.0117-.8218,5.3922,5.3922,0,0,0,.9022-1.0287,1.9883,1.9883,0,0,0,.6525.3578,32.0591,32.0591,0,0,1,18.3086,14.2705,44.3571,44.3571,0,0,0-18.5342,13.6948c-8.7559,10.7817-11.6406,23.6411-7.3486,32.7607,2.4756,5.2607,8.41,11.5591,22.6465,11.6885H523.2837A2,2,0,0,0,523.2837,182.4819Zm-154.9453-51.76c12.3291,2.9282,19.043,12.5742,18.1924,19.832-0.7031,6.0049-6.0957,9.4492-14.7949,9.4492-8.7812,0-11.5088-6.3911-15.5723-17.6875a112.3743,112.3743,0,0,0-4.6855-11.6025A36.078,36.078,0,0,1,368.3384,130.7222Zm-63.5107-19.9214-7.5918-2.7876,2.1159-5.4644,2.8532-7.3675,2.7916,0.9667,4.82,1.8662A6.8628,6.8628,0,1,1,304.8276,110.8008Zm20.7568,0.6792c-0.459,1.1851-1.38,2.3013-2.0674,2.0352a1.0255,1.0255,0,0,0-.1982-0.0537l-8.3005-1.3758a10.7755,10.7755,0,0,0,3.1644-8.1694l7.062,4.574a1.0379,1.0379,0,0,0,.1826.0933,0.8572,0.8572,0,0,1,.4912.8447A4.4912,4.4912,0,0,1,325.5845,111.48Z"
       id="cable--right" />
    <path
       d="M234.7158,97.7549L230.5465,99.37l-2.59-6.6878,4.6776-1.8116a1,1,0,0,0-.7227-1.8652l-4.6774,1.8115-1.0853-2.8022a2,2,0,0,0-2.5874-1.1431l-18.3755,7.1172a10.8415,10.8415,0,0,0-6.4468,6.9419l-8.5458,5.5352c-1.3295.58-1.8974,2.1091-1.5905,3.9675a1.9885,1.9885,0,0,0-.4315.1116,30.4922,30.4922,0,0,0-19.2256,32.0527l1.2354,10.3125a26.5,26.5,0,0,1-26.3115,29.6519H2a2,2,0,0,0,0,4H143.8691a30.5006,30.5006,0,0,0,30.2832-34.1274l-1.2354-10.3125a26.4936,26.4936,0,0,1,16.7041-27.85,1.979,1.979,0,0,0,.5616-0.3437,3.4305,3.4305,0,0,0,2.5317,1.3334,2.5788,2.5788,0,0,0,.8315-0.1387L203.58,113.46a11.0143,11.0143,0,0,0,1.1405.5941,10.79,10.79,0,0,0,8.311.1934l18.3755-7.1167a2,2,0,0,0,1.1431-2.5874l-1.2813-3.3082,4.1695-1.6147A1,1,0,0,0,234.7158,97.7549Zm-41.5869,15.41a1.03,1.03,0,0,0-.1978.0537c-0.687.2646-1.6084-.8491-2.0679-2.0347s-0.53-2.6309.1577-2.897a1.017,1.017,0,0,0,.1821-0.0933l7.0623-4.5744a10.797,10.797,0,0,0,3.1591,8.1706Zm18.4585-2.6484a6.8624,6.8624,0,0,1-4.957-12.7983l3.8884-1.506,3.012,7.777a1,1,0,0,0,1.8652-.7227L212.384,95.49l10.7566-4.1661,4.957,12.7988Z"
       id="cable--left" />
  </g>
</svg>
